<svg xmlns="http://www.w3.org/2000/svg" width="1200" height="800" viewBox="0 0 1200 800">
  <rect width="1200" height="800" fill="#0f172a"/>
  <rect x="80" y="70" width="1040" height="660" rx="28" fill="#111827" stroke="#334155" stroke-width="2"/>
  <rect x="120" y="120" width="220" height="40" rx="20" fill="#1f2937"/>
  <rect x="360" y="120" width="120" height="40" rx="20" fill="#1f2937"/>
  <rect x="500" y="120" width="150" height="40" rx="20" fill="#1f2937"/>
  <rect x="120" y="190" width="960" height="90" rx="18" fill="#1f2937"/>
  <rect x="150" y="210" width="44" height="44" rx="12" fill="#38bdf8"/>
  <rect x="220" y="215" width="220" height="18" rx="9" fill="#e5e7eb"/>
  <rect x="220" y="245" width="140" height="14" rx="7" fill="#94a3b8"/>
  <rect x="860" y="225" width="140" height="24" rx="12" fill="#34d399"/>
  <rect x="120" y="310" width="960" height="90" rx="18" fill="#1f2937"/>
  <rect x="150" y="330" width="44" height="44" rx="12" fill="#818cf8"/>
  <rect x="220" y="335" width="220" height="18" rx="9" fill="#e5e7eb"/>
  <rect x="220" y="365" width="140" height="14" rx="7" fill="#94a3b8"/>
  <rect x="860" y="345" width="140" height="24" rx="12" fill="#f59e0b"/>
  <rect x="120" y="430" width="960" height="90" rx="18" fill="#1f2937"/>
  <rect x="150" y="450" width="44" height="44" rx="12" fill="#f472b6"/>
  <rect x="220" y="455" width="220" height="18" rx="9" fill="#e5e7eb"/>
  <rect x="220" y="485" width="140" height="14" rx="7" fill="#94a3b8"/>
  <rect x="860" y="465" width="140" height="24" rx="12" fill="#34d399"/>
  <text x="120" y="640" fill="#f8fafc" font-family="Arial, sans-serif" font-size="36" font-weight="700">Book Seller</text>
  <text x="120" y="680" fill="#94a3b8" font-family="Arial, sans-serif" font-size="24">iOS book list view</text>
</svg>
