<svg xmlns="http://www.w3.org/2000/svg" width="1200" height="800" viewBox="0 0 1200 800">
  <rect width="1200" height="800" fill="#020617"/>
  <rect x="70" y="70" width="1060" height="660" rx="30" fill="#0f172a" stroke="#334155" stroke-width="2"/>
  <rect x="120" y="120" width="960" height="90" rx="20" fill="#111827"/>
  <text x="150" y="175" fill="#f8fafc" font-family="Arial, sans-serif" font-size="34" font-weight="700">SwiftNIO Mock Server Control Panel</text>
  <rect x="120" y="240" width="960" height="140" rx="22" fill="#111827" stroke="#334155" stroke-width="1"/>
  <rect x="150" y="270" width="220" height="22" rx="11" fill="#e2e8f0"/>
  <rect x="150" y="305" width="130" height="16" rx="8" fill="#94a3b8"/>
  <rect x="760" y="268" width="220" height="36" rx="18" fill="#1d4ed8"/>
  <rect x="995" y="268" width="70" height="36" rx="18" fill="#f59e0b"/>
  <rect x="120" y="410" width="960" height="140" rx="22" fill="#111827" stroke="#334155" stroke-width="1"/>
  <rect x="150" y="440" width="240" height="22" rx="11" fill="#e2e8f0"/>
  <rect x="150" y="475" width="140" height="16" rx="8" fill="#94a3b8"/>
  <rect x="760" y="438" width="220" height="36" rx="18" fill="#1d4ed8"/>
  <rect x="995" y="438" width="70" height="36" rx="18" fill="#f59e0b"/>
  <rect x="120" y="580" width="960" height="100" rx="22" fill="#111827" stroke="#334155" stroke-width="1"/>
  <rect x="150" y="612" width="260" height="20" rx="10" fill="#e2e8f0"/>
  <rect x="840" y="610" width="180" height="28" rx="14" fill="#34d399"/>
  <text x="120" y="715" fill="#94a3b8" font-family="Arial, sans-serif" font-size="24">Mock server editor and status control</text>
</svg>
